<svg width="32.000000" height="32.000000" viewBox="0 0 32 32" fill="none" xmlns="http://www.w3.org/2000/svg" xmlns:xlink="http://www.w3.org/1999/xlink" >
	
	<g id='discord'>
	   <path id="Vector" d="M24.16 7.65C22.54 6.87 20.83 6.32 19.07 6C19.05 5.99 19.04 6 19.02 6C19.01 6.01 19 6.02 18.99 6.04C18.77 6.45 18.52 6.98 18.35 7.4C16.46 7.1 14.53 7.1 12.64 7.4C12.45 6.94 12.23 6.48 12 6.04C11.99 6.02 11.98 6.01 11.96 6C11.95 6 11.93 5.99 11.91 6C10.16 6.31 8.45 6.87 6.82 7.65C6.81 7.66 6.8 7.67 6.79 7.68C3.55 12.77 2.66 17.72 3.1 22.62C3.1 22.64 3.11 22.66 3.13 22.68C5.02 24.15 7.13 25.27 9.37 25.99C9.39 26 9.41 26 9.42 25.99C9.44 25.99 9.45 25.97 9.46 25.96C9.94 25.27 10.37 24.54 10.74 23.78C10.75 23.76 10.75 23.75 10.75 23.73C10.74 23.71 10.74 23.7 10.72 23.68C10.72 23.68 10.71 23.67 10.7 23.67C10.02 23.39 9.37 23.07 8.75 22.69C8.73 22.68 8.71 22.66 8.71 22.64C8.7 22.62 8.7 22.6 8.71 22.58C8.72 22.57 8.73 22.56 8.74 22.55C8.87 22.45 9 22.34 9.12 22.23C9.14 22.22 9.15 22.22 9.16 22.21C9.18 22.21 9.19 22.21 9.2 22.22C13.3 24.18 17.73 24.18 21.77 22.22C21.78 22.21 21.8 22.21 21.81 22.21C21.83 22.22 21.84 22.22 21.85 22.23C21.98 22.34 22.11 22.45 22.24 22.55C22.25 22.56 22.26 22.57 22.26 22.58C22.27 22.59 22.27 22.61 22.27 22.62C22.27 22.64 22.27 22.65 22.26 22.66C22.25 22.67 22.24 22.68 22.23 22.69C21.61 23.07 20.96 23.4 20.28 23.66C20.27 23.67 20.26 23.67 20.25 23.68C20.24 23.69 20.24 23.7 20.23 23.71C20.23 23.72 20.23 23.74 20.23 23.75C20.23 23.76 20.23 23.77 20.24 23.78C20.61 24.54 21.04 25.27 21.52 25.96C21.53 25.97 21.54 25.99 21.55 25.99C21.57 26 21.59 26 21.6 25.99C23.85 25.27 25.97 24.15 27.85 22.68C27.86 22.67 27.87 22.66 27.88 22.65C27.88 22.64 27.89 22.63 27.89 22.62C28.41 16.96 27.01 12.04 24.19 7.69C24.19 7.68 24.18 7.67 24.18 7.67C24.17 7.66 24.17 7.66 24.16 7.65ZM11.35 19.64C10.12 19.64 9.1 18.45 9.1 16.99C9.1 15.54 10.1 14.35 11.35 14.35C12.61 14.35 13.62 15.55 13.6 16.99C13.6 18.45 12.6 19.64 11.35 19.64ZM19.66 19.64C18.42 19.64 17.41 18.45 17.41 16.99C17.41 15.54 18.4 14.35 19.66 14.35C20.92 14.35 21.92 15.55 21.9 16.99C21.9 18.45 20.92 19.64 19.66 19.64Z" fill="#ABB2BF" fill-opacity="1.000000" fill-rule="nonzero"/>
	</g>

    <g id='dribble'>
	  <path id="Vector" d="M16.5 4C10.15 4 5 9.15 5 15.5C5 21.84 10.15 27 16.5 27C22.83 27 28 21.84 28 15.5C28 9.15 22.83 4 16.5 4ZM24.09 9.3C25.51 11.02 26.29 13.18 26.31 15.41C25.99 15.35 22.74 14.68 19.48 15.1C19.4 14.93 19.34 14.76 19.26 14.59C19.06 14.11 18.84 13.62 18.62 13.16C22.23 11.69 23.88 9.57 24.09 9.3L24.09 9.3ZM16.5 5.69C18.99 5.69 21.27 6.63 23.01 8.16C22.83 8.41 21.35 10.39 17.85 11.7C16.24 8.75 14.46 6.33 14.19 5.95C14.94 5.78 15.72 5.69 16.5 5.69ZM12.32 6.61C13.63 8.44 14.85 10.33 15.96 12.29C11.37 13.51 7.32 13.49 6.88 13.49C7.19 12 7.85 10.61 8.79 9.41C9.74 8.22 10.94 7.26 12.32 6.62L12.32 6.61ZM6.67 15.51L6.67 15.21C7.09 15.22 11.86 15.28 16.76 13.81C17.04 14.36 17.31 14.92 17.56 15.48L17.17 15.59C12.1 17.23 9.41 21.69 9.19 22.07C7.56 20.27 6.67 17.93 6.67 15.51L6.67 15.51ZM16.5 25.32C14.31 25.33 12.19 24.6 10.47 23.25C10.64 22.89 12.64 19.05 18.18 17.12C18.2 17.1 18.22 17.1 18.24 17.09C19.18 19.5 19.88 22 20.34 24.54C19.12 25.06 17.82 25.33 16.5 25.32ZM21.97 23.64C21.87 23.04 21.35 20.17 20.06 16.64C23.14 16.16 25.84 16.95 26.17 17.07C25.96 18.39 25.48 19.66 24.76 20.79C24.04 21.92 23.09 22.89 21.97 23.64L21.97 23.64Z" fill="#ABB2BF" fill-opacity="1.000000" fill-rule="evenodd"/>
	</g>

	<g id='email'>
		<path id="Vector" d="M5.07 9.2C5.21 8.57 5.57 8.01 6.08 7.61C6.59 7.21 7.22 6.99 7.87 7L25.12 7C25.77 6.99 26.4 7.21 26.91 7.61C27.42 8.01 27.78 8.57 27.92 9.2L16.5 16.08L5.07 9.2ZM5 10.82L5 20.88L13.34 15.84L5 10.82ZM14.71 16.67L5.27 22.38C5.5 22.86 5.87 23.27 6.33 23.56C6.79 23.84 7.33 24 7.87 24L25.12 24C25.66 24 26.2 23.84 26.66 23.56C27.12 23.27 27.49 22.86 27.72 22.37L18.27 16.67L16.5 17.74L14.71 16.67L14.71 16.67ZM19.65 15.84L28 20.88L28 10.82L19.65 15.84L19.65 15.84Z" fill="#ABB2BF" fill-opacity="1.000000" fill-rule="nonzero"/>
	</g>

	<g id='figma'>
		<path id="Vector" d="M16 16C16 15.11 16.36 14.26 17.02 13.64C17.68 13.01 18.57 12.66 19.5 12.66C20.42 12.66 21.31 13.01 21.97 13.64C22.63 14.26 23 15.11 23 16C23 16.88 22.63 17.73 21.97 18.35C21.31 18.98 20.42 19.33 19.5 19.33C18.57 19.33 17.68 18.98 17.02 18.35C16.36 17.73 16 16.88 16 16ZM9 22.66C9 21.78 9.36 20.93 10.02 20.3C10.68 19.68 11.57 19.33 12.5 19.33L16 19.33L16 22.66C16 23.55 15.63 24.39 14.97 25.02C14.31 25.64 13.42 26 12.5 26C11.57 26 10.68 25.64 10.02 25.02C9.36 24.39 9 23.55 9 22.66ZM16 6L16 12.66L19.5 12.66C20.42 12.66 21.31 12.31 21.97 11.69C22.63 11.06 23 10.21 23 9.33C23 8.44 22.63 7.6 21.97 6.97C21.31 6.35 20.42 6 19.5 6L16 6ZM9 9.33C9 10.21 9.36 11.06 10.02 11.69C10.68 12.31 11.57 12.66 12.5 12.66L16 12.66L16 6L12.5 6C11.57 6 10.68 6.35 10.02 6.97C9.36 7.6 9 8.44 9 9.33ZM9 16C9 16.88 9.36 17.73 10.02 18.35C10.68 18.98 11.57 19.33 12.5 19.33L16 19.33L16 12.66L12.5 12.66C11.57 12.66 10.68 13.01 10.02 13.64C9.36 14.26 9 15.11 9 16Z" fill="#ABB2BF" fill-opacity="1.000000" fill-rule="nonzero"/>
	</g>

	<g id='github'>
		<path id="Vector" d="M15.5 6C9.69 6 5 10.58 5 16.25C5 20.78 8 24.62 12.17 25.98C12.7 26.07 12.9 25.76 12.9 25.49C12.9 25.24 12.88 24.44 12.88 23.58C10.25 24.05 9.56 22.95 9.35 22.37C9.23 22.08 8.72 21.17 8.28 20.93C7.91 20.73 7.38 20.26 8.26 20.25C9.09 20.23 9.68 20.99 9.88 21.3C10.82 22.85 12.33 22.41 12.94 22.14C13.03 21.48 13.3 21.03 13.61 20.77C11.27 20.52 8.83 19.63 8.83 15.71C8.83 14.59 9.23 13.67 9.9 12.95C9.8 12.7 9.43 11.65 10.01 10.24C10.01 10.24 10.89 9.97 12.9 11.29C13.74 11.06 14.63 10.94 15.52 10.94C16.41 10.94 17.31 11.06 18.15 11.29C20.15 9.96 21.03 10.24 21.03 10.24C21.61 11.65 21.24 12.7 21.14 12.95C21.81 13.67 22.22 14.58 22.22 15.71C22.22 19.64 19.76 20.52 17.42 20.77C17.81 21.09 18.13 21.71 18.13 22.67C18.13 24.04 18.12 25.14 18.12 25.49C18.12 25.76 18.32 26.08 18.84 25.98C20.93 25.29 22.74 23.98 24.02 22.24C25.3 20.49 25.99 18.4 26 16.25C26 10.58 21.3 6 15.5 6Z" fill="#ABB2BF" fill-opacity="1.000000" fill-rule="nonzero"/>
	</g>

	<g id='linkedin'>
		<path id="Vector" d="M4 5.71C4 4.76 4.78 4 5.76 4L26.23 4C27.21 4 28 4.76 28 5.71L28 26.28C28 27.23 27.21 28 26.23 28L5.76 28C4.78 28 4 27.23 4 26.28L4 5.71ZM11.41 24.09L11.41 13.25L7.81 13.25L7.81 24.09L11.41 24.09ZM9.61 11.77C10.87 11.77 11.65 10.94 11.65 9.9C11.62 8.83 10.87 8.02 9.63 8.02C8.4 8.02 7.6 8.83 7.6 9.9C7.6 10.94 8.38 11.77 9.59 11.77L9.61 11.77ZM16.97 24.09L16.97 18.03C16.97 17.71 17 17.39 17.09 17.15C17.35 16.51 17.94 15.84 18.94 15.84C20.24 15.84 20.76 16.83 20.76 18.29L20.76 24.09L24.37 24.09L24.37 17.87C24.37 14.54 22.59 12.99 20.22 12.99C18.31 12.99 17.45 14.04 16.97 14.78L16.97 14.82L16.95 14.82C16.96 14.81 16.96 14.79 16.97 14.78L16.97 13.25L13.37 13.25C13.42 14.27 13.37 24.09 13.37 24.09L16.97 24.09Z" fill="#ABB2BF" fill-opacity="1.000000" fill-rule="nonzero"/>
	</g>

	<g id='telegram'>
		<path id="Vector" d="M27 15.5C27 18.54 25.78 21.47 23.63 23.63C21.47 25.78 18.54 27 15.5 27C12.45 27 9.52 25.78 7.36 23.63C5.21 21.47 4 18.54 4 15.5C4 12.45 5.21 9.52 7.36 7.36C9.52 5.21 12.45 4 15.5 4C18.54 4 21.47 5.21 23.63 7.36C25.78 9.52 27 12.45 27 15.5ZM15.91 12.48C14.79 12.95 12.55 13.91 9.2 15.37C8.66 15.59 8.37 15.8 8.34 16.01C8.3 16.36 8.74 16.5 9.34 16.69L9.59 16.76C10.17 16.96 10.97 17.18 11.38 17.19C11.75 17.2 12.16 17.04 12.62 16.73C15.76 14.61 17.37 13.54 17.47 13.52C17.54 13.5 17.65 13.48 17.71 13.54C17.78 13.6 17.77 13.72 17.76 13.75C17.72 13.93 16 15.53 15.11 16.36C14.83 16.62 14.64 16.8 14.6 16.84C14.51 16.93 14.42 17.02 14.33 17.11C13.78 17.64 13.37 18.03 14.35 18.67C14.82 18.98 15.19 19.24 15.57 19.49C15.98 19.77 16.39 20.05 16.92 20.4C17.05 20.48 17.18 20.58 17.3 20.67C17.78 21.01 18.21 21.31 18.74 21.26C19.04 21.23 19.36 20.95 19.52 20.08C19.9 18.05 20.65 13.63 20.83 11.82C20.84 11.67 20.83 11.51 20.81 11.36C20.79 11.24 20.73 11.13 20.64 11.05C20.51 10.96 20.36 10.91 20.2 10.92C19.77 10.93 19.1 11.16 15.91 12.48Z" fill="#ABB2BF" fill-opacity="1.000000" fill-rule="nonzero"/>
	</g>

	<g id='twitter'>
		<path id="Vector" d="M11.22 26C19.9 26 24.65 18.68 24.65 12.35C24.65 12.15 24.65 11.94 24.64 11.74C25.56 11.06 26.36 10.21 27 9.25C26.13 9.64 25.22 9.89 24.28 10.01C25.27 9.41 26.01 8.46 26.36 7.35C25.43 7.91 24.42 8.3 23.36 8.51C22.65 7.74 21.71 7.23 20.68 7.06C19.66 6.89 18.6 7.06 17.69 7.56C16.77 8.06 16.04 8.85 15.61 9.82C15.18 10.78 15.08 11.86 15.32 12.89C13.44 12.79 11.6 12.29 9.93 11.43C8.25 10.57 6.77 9.36 5.59 7.87C4.99 8.93 4.8 10.18 5.07 11.37C5.35 12.56 6.05 13.6 7.05 14.28C6.3 14.25 5.57 14.05 4.91 13.68L4.91 13.75C4.92 14.86 5.29 15.93 5.98 16.78C6.67 17.64 7.63 18.23 8.7 18.45C8.29 18.56 7.88 18.62 7.45 18.62C7.16 18.62 6.86 18.59 6.57 18.54C6.87 19.49 7.46 20.32 8.25 20.92C9.04 21.52 10 21.85 10.98 21.86C9.31 23.2 7.24 23.92 5.12 23.92C4.74 23.92 4.37 23.9 4 23.85C6.15 25.25 8.66 26 11.22 26Z" fill="#ABB2BF" fill-opacity="1.000000" fill-rule="nonzero"/>
	</g>

	<g id='union'>
		<path id="Vector" d="M8 0L16 0L16 12L8 12L8 8L12 8L12 4L8 4L8 0ZM0 4L8 4L8 8L4 8L4 12L8 12L8 16L0 16L0 4Z" clip-rule="evenodd" fill="#FFFFFF" fill-opacity="1.000000" fill-rule="evenodd"/>
	</g>

	<g id='landmark'>
		<path id="Vector" d="M9.5 25C9.5 25 19 16.11 19 9.37C19 6.88 17.99 4.5 16.21 2.74C14.43 0.98 12.01 0 9.5 0C6.98 0 4.56 0.98 2.78 2.74C1 4.5 0 6.88 0 9.37C0 16.11 9.5 25 9.5 25ZM9.5 14.06C8.24 14.06 7.03 13.56 6.14 12.68C5.25 11.81 4.75 10.61 4.75 9.37C4.75 8.13 5.25 6.93 6.14 6.06C7.03 5.18 8.24 4.68 9.5 4.68C10.75 4.68 11.96 5.18 12.85 6.06C13.74 6.93 14.25 8.13 14.25 9.37C14.25 10.61 13.74 11.81 12.85 12.68C11.96 13.56 10.75 14.06 9.5 14.06Z" fill="#ABB2BF" fill-opacity="1.000000" fill-rule="nonzero"/>
	</g>

	<g id='play'>
		<path id="Vector" d="M15.19 10.39L2.46 17.77C1.38 18.4 0 17.64 0 16.38L0 1.61C0 0.35 1.38 -0.41 2.46 0.22L15.19 7.6C15.43 7.74 15.64 7.95 15.78 8.19C15.92 8.44 16 8.71 16 9C16 9.28 15.92 9.56 15.78 9.8C15.64 10.05 15.43 10.25 15.19 10.39Z" fill="#ABB2BF" fill-opacity="1.000000" fill-rule="nonzero"/>
	</g>

	<g id='paycard'>
		<path id="Vector" d="M0 2.66C0 1.95 0.28 1.28 0.8 0.78C1.32 0.28 2.02 0 2.75 0L19.25 0C19.97 0 20.67 0.28 21.19 0.78C21.71 1.28 22 1.95 22 2.66L22 9.33L0 9.33L0 2.66ZM15.81 4C15.63 4 15.45 4.07 15.32 4.19C15.19 4.32 15.12 4.48 15.12 4.66L15.12 6C15.12 6.17 15.19 6.34 15.32 6.47C15.45 6.59 15.63 6.66 15.81 6.66L18.56 6.66C18.74 6.66 18.91 6.59 19.04 6.47C19.17 6.34 19.25 6.17 19.25 6L19.25 4.66C19.25 4.48 19.17 4.32 19.04 4.19C18.91 4.07 18.74 4 18.56 4L15.81 4ZM0 12L0 13.33C0 14.04 0.28 14.71 0.8 15.21C1.32 15.71 2.02 16 2.75 16L19.25 16C19.97 16 20.67 15.71 21.19 15.21C21.71 14.71 22 14.04 22 13.33L22 12L0 12Z" fill="#ABB2BF" fill-opacity="1.000000" fill-rule="nonzero"/>
	</g>

	<g id='calendar'>
		<path id="Vector" d="M4.37 0C4.54 0 4.69 0.06 4.81 0.18C4.93 0.3 5 0.45 5 0.62L5 1.25L15 1.25L15 0.62C15 0.45 15.06 0.3 15.18 0.18C15.3 0.06 15.45 0 15.62 0C15.79 0 15.94 0.06 16.06 0.18C16.18 0.3 16.25 0.45 16.25 0.62L16.25 1.25L17.5 1.25C18.16 1.25 18.79 1.51 19.26 1.98C19.73 2.45 20 3.08 20 3.75L20 17.5C20 18.16 19.73 18.79 19.26 19.26C18.79 19.73 18.16 20 17.5 20L2.5 20C1.83 20 1.2 19.73 0.73 19.26C0.26 18.79 0 18.16 0 17.5L0 6.25L20 6.25L20 5L0 5L0 3.75C0 3.08 0.26 2.45 0.73 1.98C1.2 1.51 1.83 1.25 2.5 1.25L3.75 1.25L3.75 0.62C3.75 0.45 3.81 0.3 3.93 0.18C4.05 0.06 4.2 0 4.37 0L4.37 0Z" fill="#ABB2BF" fill-opacity="1.000000" fill-rule="nonzero"/>
	</g>

	<g id='bitcoin'>
		<path id="Vector" d="M4.13 21.23L4.13 23.53C4.13 23.79 4.33 24 4.59 24L6.43 24C6.55 24 6.66 23.95 6.75 23.86C6.84 23.77 6.88 23.66 6.88 23.53L6.88 21.23L7.8 21.23L7.8 23.53C7.8 23.79 8.01 24 8.26 24L10.1 24C10.22 24 10.34 23.95 10.43 23.86C10.51 23.77 10.56 23.66 10.56 23.53L10.56 21.23L10.72 21.23C14.38 21.23 17 19.32 17 16.02C17 13.25 15.14 11.73 12.98 11.52L12.98 11.35C14.76 10.91 16.07 9.55 16.07 7.31C16.07 4.48 13.96 2.76 10.73 2.76L10.56 2.76L10.56 0.46C10.56 0.33 10.51 0.22 10.43 0.13C10.34 0.04 10.22 0 10.1 0L8.26 0C8.14 0 8.02 0.04 7.94 0.13C7.85 0.22 7.8 0.33 7.8 0.46L7.8 2.76L6.75 2.76L6.75 0.46C6.75 0.33 6.7 0.22 6.62 0.13C6.53 0.04 6.41 0 6.29 0L4.59 0C4.46 0 4.35 0.04 4.26 0.13C4.18 0.22 4.13 0.33 4.13 0.46L4.13 2.76L0.45 2.78C0.33 2.78 0.22 2.83 0.13 2.92C0.04 3.01 0 3.12 0 3.25L0 5.07C0 5.32 0.2 5.53 0.45 5.53L1.84 5.52C2.2 5.53 2.55 5.67 2.81 5.93C3.06 6.19 3.21 6.54 3.21 6.91L3.21 17.07C3.21 17.44 3.06 17.79 2.8 18.05C2.55 18.31 2.2 18.46 1.83 18.46L0.45 18.48C0.33 18.48 0.22 18.53 0.13 18.61C0.04 18.7 0 18.82 0 18.94L0 20.78C0 21.04 0.2 21.25 0.45 21.25L4.13 21.23ZM6.75 5.51L9.91 5.51C11.58 5.51 12.55 6.43 12.55 7.93C12.55 9.54 11.5 10.45 9.1 10.45L6.75 10.45L6.75 5.51ZM6.75 12.99L10.13 12.99C12.22 12.99 13.36 14.06 13.36 15.8C13.36 17.56 12.21 18.48 9.39 18.48L6.75 18.48L6.75 12.99L6.75 12.99Z" fill="#ABB2BF" fill-opacity="1.000000" fill-rule="nonzero"/>
	</g>

	<g id='quotes'>
		<rect width="41.472" height="28.704" fill="#282C33"/>
	<path d="M18.56 19.616C18.56 21.0453 18.0373 22.2507 16.992 23.232C15.968 24.2133 14.72 24.704 13.248 24.704C11.7333 24.704 10.4747 24.2133 9.472 23.232C8.49067 22.2507 8 21.0453 8 19.616C8 18.9333 8.096 18.208 8.288 17.44C8.48 16.672 8.864 15.68 9.44 14.464L14.4 4H19.2L16.544 15.584C17.1413 16.0107 17.6213 16.576 17.984 17.28C18.368 17.9627 18.56 18.7413 18.56 19.616ZM32.8 19.616C32.8 21.0453 32.2773 22.2507 31.232 23.232C30.1867 24.2133 28.9387 24.704 27.488 24.704C26.016 24.704 24.768 24.2133 23.744 23.232C22.7413 22.2507 22.24 21.0453 22.24 19.616C22.24 18.9333 22.336 18.208 22.528 17.44C22.72 16.672 23.1147 15.68 23.712 14.464L28.704 4H33.472L30.784 15.584C31.4027 16.0107 31.8933 16.576 32.256 17.28C32.6187 17.9627 32.8 18.7413 32.8 19.616Z" fill="#ABB2BF"/>
	</g>
</svg>




	


	